<svg width="24" height="25" viewBox="0 0 24 25" fill="none" xmlns="http://www.w3.org/2000/svg">
<path d="M6.62391 11.29C8.06391 14.12 10.3839 16.43 13.2139 17.88L15.4139 15.68C15.6839 15.41 16.0839 15.32 16.4339 15.44C17.5539 15.81 18.7639 16.01 20.0039 16.01C20.5539 16.01 21.0039 16.46 21.0039 17.01V20.5C21.0039 21.05 20.5539 21.5 20.0039 21.5C10.6139 21.5 3.00391 13.89 3.00391 4.5C3.00391 3.95 3.45391 3.5 4.00391 3.5H7.50391C8.05391 3.5 8.50391 3.95 8.50391 4.5C8.50391 5.75 8.70391 6.95 9.07391 8.07C9.18391 8.42 9.10391 8.81 8.82391 9.09L6.62391 11.29Z" fill="white"/>
</svg>
